<svg width="52" height="52" viewBox="0 0 52 52" fill="none" xmlns="http://www.w3.org/2000/svg">
<path d="M34.3182 36.4429L36.6961 32.5843L40.9873 31.1208L41.4627 26.6137L44.6913 23.4353L43.1563 19.1691L44.6913 14.9028L41.4628 11.7244L40.9874 7.21744L36.6962 5.75392L34.3183 1.89526L29.8206 2.43831L26 0L22.1793 2.43852L17.6817 1.89546L15.3038 5.75402L11.0126 7.21754L10.5372 11.7245L7.30859 14.9029L8.84361 19.1692L7.30859 23.4355L10.5371 26.6138L11.0125 31.1209L15.3037 32.5844L17.6816 36.443L22.1793 35.9L26 38.3384L29.8206 35.9L34.3182 36.4429ZM12.8548 19.1692C12.8548 11.921 18.7517 6.02408 26 6.02408C33.2482 6.02408 39.1451 11.921 39.1451 19.1692C39.1451 26.4174 33.2482 32.3143 26 32.3143C18.7517 32.3143 12.8548 26.4174 12.8548 19.1692Z" fill="#FF823C"/>
<path d="M25.9999 9.073C20.4327 9.073 15.9035 13.6022 15.9035 19.1693C15.9035 24.7365 20.4327 29.2657 25.9999 29.2657C31.567 29.2657 36.0962 24.7365 36.0962 19.1693C36.0962 13.6022 31.567 9.073 25.9999 9.073ZM21.4599 39.0578L16.1096 39.7037L13.2828 35.1165L12.3218 34.7888L8.17676 47.7447L15.6391 47.3343L21.4774 52.0001L24.913 41.2617L21.4599 39.0578ZM38.7169 35.1166L35.89 39.7037L30.5398 39.0578L27.0867 41.2617L30.5223 52.0001L36.3607 47.3343L43.823 47.7447L39.6779 34.7888L38.7169 35.1166Z" fill="#FF823C"/>
</svg>
