<svg width="52" height="52" viewBox="0 0 52 52" fill="none" xmlns="http://www.w3.org/2000/svg">
<path d="M34.5908 14.135H41.552C41.4488 13.9949 41.3382 13.8548 41.2054 13.7294L38.9858 11.5098C38.9858 11.5098 38.9784 11.5098 38.9784 11.5024L33.3962 5.92017C33.2782 5.80218 33.1455 5.69157 33.0054 5.5957V12.5569C33.0127 13.4197 33.7207 14.135 34.5908 14.135Z" fill="#FF823C"/>
<path fill-rule="evenodd" clip-rule="evenodd" d="M34.5909 14.8725H41.9282C42.061 15.2191 42.1421 15.5878 42.1421 15.9713V28.6548H34.0526C32.4451 28.6548 31.1398 29.9601 31.1398 31.5676V47.0534C31.1408 47.466 31.2302 47.8737 31.4019 48.2489C31.5736 48.6241 31.8237 48.9582 32.1354 49.2287H8.40531C7.56239 49.2287 6.75398 48.8939 6.15794 48.2978C5.5619 47.7018 5.22705 46.8934 5.22705 46.0505V8.1768C5.22705 7.33387 5.5619 6.52547 6.15794 5.92943C6.75398 5.33339 7.56239 4.99854 8.40531 4.99854H31.1767C31.5528 4.99854 31.9289 5.07965 32.2755 5.21239V12.5497C32.2755 13.8328 33.3152 14.8725 34.5909 14.8725ZM23.0946 7.9482H17.1879C16.9815 7.9482 16.8192 8.11043 16.8192 8.31691C16.8192 8.52338 16.9815 8.68561 17.1879 8.68561H23.0946C23.3011 8.68561 23.4633 8.52338 23.4633 8.31691C23.4633 8.11043 23.3011 7.9482 23.0946 7.9482ZM28.4409 14.2089H17.1879C16.9815 14.2089 16.8192 14.3785 16.8192 14.5776C16.8192 14.784 16.9815 14.9463 17.1879 14.9463H28.4409C28.6474 14.9463 28.8096 14.784 28.8096 14.5776C28.8096 14.3711 28.6474 14.2089 28.4409 14.2089ZM38.8237 20.4769H8.54542C8.33895 20.4769 8.17671 20.6465 8.17671 20.8456C8.17671 21.0521 8.33895 21.2143 8.54542 21.2143H38.8237C39.0302 21.2143 39.1924 21.0521 39.1924 20.8456C39.1924 20.6391 39.0302 20.4769 38.8237 20.4769ZM8.54542 46.2791H20.6907C20.8971 46.2791 21.0594 46.1168 21.0594 45.9104C21.0594 45.7039 20.8971 45.5417 20.6907 45.5417H8.54542C8.33895 45.5417 8.17671 45.7039 8.17671 45.9104C8.17671 46.1168 8.33895 46.2791 8.54542 46.2791ZM8.54542 40.011H28.4409C28.6474 40.011 28.8096 39.8488 28.8096 39.6423C28.8096 39.4359 28.6474 39.2736 28.4409 39.2736H8.54542C8.33895 39.2736 8.17671 39.4359 8.17671 39.6423C8.17671 39.8488 8.33895 40.011 8.54542 40.011ZM8.54542 33.7504H28.8022C29.0087 33.7504 29.1709 33.5881 29.1709 33.3817C29.1709 33.1752 29.0087 33.013 28.8022 33.013H8.54542C8.33895 33.013 8.17671 33.1752 8.17671 33.3817C8.17671 33.5881 8.33895 33.7504 8.54542 33.7504ZM8.54542 27.4823H38.8237C39.0302 27.4823 39.1924 27.3201 39.1924 27.1136C39.1924 26.9072 39.0302 26.7449 38.8237 26.7449H8.54542C8.33895 26.7449 8.17671 26.9072 8.17671 27.1136C8.17671 27.3201 8.33895 27.4823 8.54542 27.4823ZM8.25599 12.2384H9.16336V8.15525H12.1123C12.7741 8.15525 13.4088 8.41814 13.8767 8.88609C14.3447 9.35405 14.6076 9.98872 14.6076 10.6505C14.6076 11.3123 14.3447 11.947 13.8767 12.4149C13.4088 12.8829 12.7741 13.1458 12.1123 13.1458H10.0707V14.0531H12.7701V14.9605H10.0707V17.2289H9.16336V14.9605H8.25599V14.0531H9.16336V13.1458H8.25599V12.2384ZM10.0707 9.06262V12.2384H12.1123C12.5334 12.2384 12.9373 12.0711 13.2351 11.7733C13.5329 11.4755 13.7002 11.0716 13.7002 10.6505C13.7002 10.2294 13.5329 9.82549 13.2351 9.5277C12.9373 9.22991 12.5334 9.06262 12.1123 9.06262H10.0707Z" fill="#FF823C"/>
<path d="M3 5.94975V43.8234C3 44.9517 3.59731 45.9693 4.5412 46.5297C4.51908 46.3675 4.48958 46.2126 4.48958 46.0504V8.17674C4.48958 6.01611 6.24463 4.26106 8.40526 4.26106H31.1767C31.3905 4.26106 31.6044 4.28319 31.8108 4.32006L31.1914 3.70063C30.9259 3.43516 30.6088 3.21393 30.2696 3.05908C29.8567 2.86735 29.4069 2.77148 28.9497 2.77148H6.17826C5.33533 2.77148 4.52693 3.10634 3.93089 3.70238C3.33485 4.29842 3 5.10682 3 5.94975Z" fill="#FF823C"/>
<path d="M46.8249 29.3921H34.0528C32.8508 29.3921 31.8774 30.3655 31.8774 31.5675V47.0532C31.8774 48.2478 32.8435 49.2212 34.0381 49.2286H46.8249C48.0268 49.2286 49.0002 48.2552 49.0002 47.0532V31.5675C49.0002 30.3655 48.0268 29.3921 46.8249 29.3921ZM37.6367 46.1093C37.6367 46.6108 37.2311 47.0163 36.7296 47.0163H34.9967C34.4953 47.0163 34.0897 46.6108 34.0897 46.1093V44.3764C34.0897 43.8749 34.4953 43.4694 34.9967 43.4694H36.7296C37.2311 43.4694 37.6367 43.8749 37.6367 44.3764V46.1093ZM37.6367 41.2719C37.6367 41.7733 37.2311 42.1789 36.7296 42.1789H34.9967C34.4953 42.1789 34.0897 41.7733 34.0897 41.2719V39.5389C34.0897 39.0375 34.4953 38.6319 34.9967 38.6319H36.7296C37.2311 38.6319 37.6367 39.0375 37.6367 39.5389V41.2719ZM42.216 46.1093C42.216 46.6108 41.8031 47.0163 41.3016 47.0163H39.5761C39.0746 47.0163 38.6617 46.6108 38.6617 46.1093V44.3764C38.6617 43.8749 39.0746 43.4694 39.5761 43.4694H41.3016C41.8031 43.4694 42.216 43.8749 42.216 44.3764V46.1093ZM42.216 41.2719C42.216 41.7733 41.8031 42.1789 41.3016 42.1789H39.5761C39.0746 42.1789 38.6617 41.7733 38.6617 41.2719V39.5389C38.6617 39.0375 39.0746 38.6319 39.5761 38.6319H41.3016C41.8031 38.6319 42.216 39.0375 42.216 39.5389V41.2719ZM46.788 46.1093C46.788 46.6108 46.3824 47.0163 45.881 47.0163H44.148C43.6466 47.0163 43.241 46.6108 43.241 46.1093V39.5389C43.241 39.0375 43.6466 38.6319 44.148 38.6319H45.881C46.3824 38.6319 46.788 39.0375 46.788 39.5389V46.1093ZM46.788 36.3164C46.788 36.8326 46.3677 37.2456 45.8588 37.2456H35.0188C34.51 37.2456 34.0897 36.8252 34.0897 36.3164V32.5335C34.0897 32.0247 34.5026 31.6043 35.0188 31.6043H45.8588C46.3677 31.6043 46.788 32.0247 46.788 32.5335V36.3164Z" fill="#FF823C"/>
<path d="M36.7292 44.2068H34.9963C34.9519 44.2086 34.9098 44.2271 34.8783 44.2585C34.8469 44.2899 34.8285 44.332 34.8267 44.3764V46.1094C34.8267 46.1978 34.9078 46.279 34.9963 46.279H36.7292C36.8177 46.279 36.8988 46.1978 36.8988 46.1094V44.3764C36.897 44.332 36.8785 44.2899 36.8471 44.2585C36.8157 44.2271 36.7736 44.2086 36.7292 44.2068ZM36.7292 39.3694H34.9963C34.9078 39.3694 34.8267 39.4431 34.8267 39.539V41.2719C34.8267 41.3604 34.9078 41.4415 34.9963 41.4415H36.7292C36.8177 41.4415 36.8988 41.3678 36.8988 41.2719V39.539C36.897 39.4946 36.8785 39.4525 36.8471 39.4211C36.8157 39.3896 36.7736 39.3712 36.7292 39.3694ZM45.8584 32.3418H35.0184C34.9151 32.3418 34.8267 32.4303 34.8267 32.5335V36.3165C34.8267 36.4197 34.9151 36.5082 35.0184 36.5082H45.8584C45.9616 36.5082 46.0501 36.4197 46.0501 36.3165V32.5335C46.0501 32.4303 45.9616 32.3418 45.8584 32.3418ZM41.3012 39.3694H39.5756C39.4798 39.3694 39.3986 39.4431 39.3986 39.539V41.2719C39.3986 41.3678 39.4798 41.4415 39.5756 41.4415H41.3012C41.397 41.4415 41.4782 41.3678 41.4782 41.2719V39.539C41.4782 39.4431 41.397 39.3694 41.3012 39.3694ZM45.8805 39.3694H44.1476C44.0591 39.3694 43.978 39.4431 43.978 39.539V46.1094C43.978 46.1978 44.0591 46.279 44.1476 46.279H45.8805C45.969 46.279 46.0501 46.1978 46.0501 46.1094V39.539C46.0483 39.4946 46.0299 39.4525 45.9984 39.4211C45.967 39.3896 45.9249 39.3712 45.8805 39.3694Z" fill="#FF823C"/>
</svg>
