<svg width="52" height="52" viewBox="0 0 52 52" fill="none" xmlns="http://www.w3.org/2000/svg">
<path d="M28.5257 43.1036L31.8758 44.1762L31.1515 40.7614L28.5257 43.1036ZM26.767 26C26.767 26.4231 26.4235 26.7668 26.0002 26.7668C25.577 26.7668 25.2334 26.4232 25.2334 26C25.2334 25.5767 25.577 25.2332 26.0002 25.2332C26.4235 25.2332 26.767 25.5767 26.767 26Z" fill="#FF823C"/>
<path d="M26 3C13.2973 3 3 13.2973 3 26C3 38.7027 13.2973 49 26 49C38.7027 49 49 38.7027 49 26C49 13.2973 38.7027 3 26 3ZM33.1805 42.9387L33.6504 45.1504C33.6921 45.3494 33.6531 45.5568 33.542 45.7271C33.4309 45.8973 33.2566 46.0165 33.0577 46.0583C32.9289 46.0852 32.7953 46.0785 32.6698 46.039L26.7843 44.1541C26.3808 44.0256 26.1576 43.5946 26.2861 43.191C26.3276 43.0597 26.4039 42.9421 26.5068 42.8506L31.1197 38.7357C31.2199 38.6463 31.3419 38.5849 31.4734 38.5575C31.6049 38.5301 31.7413 38.5377 31.869 38.5795C31.9966 38.6214 32.111 38.696 32.2008 38.796C32.2905 38.8959 32.3524 39.0177 32.3803 39.1491L32.8587 41.4023C41.3566 37.6082 45.1697 27.6428 41.3756 19.1448C37.581 10.6465 27.6161 6.83345 19.1178 10.6279C10.6199 14.4225 6.80677 24.3874 10.6012 32.8857C11.517 34.9367 12.8336 36.784 14.4736 38.3189C16.1136 39.8537 18.0439 41.0453 20.151 41.8234L24.5787 27.7934C23.7322 27.1381 23.463 25.9783 23.934 25.017L17.7951 18.8778C17.6538 18.7315 17.5765 18.5352 17.58 18.3318C17.5835 18.1285 17.6677 17.9349 17.814 17.7937C17.9569 17.6556 18.1478 17.5784 18.3466 17.5784C18.5453 17.5784 18.7363 17.6556 18.8792 17.7937L25.0141 23.93C25.3213 23.7802 25.6583 23.7016 26 23.6999C27.2701 23.6936 28.3054 24.718 28.3117 25.9882C28.3184 27.2586 27.2939 28.2936 26.0239 28.3003L21.3769 43.0254C21.32 43.2051 21.199 43.3578 21.0364 43.4539C20.9116 43.5273 20.7696 43.5662 20.6248 43.5665C20.5486 43.5666 20.4729 43.555 20.4002 43.5322C10.7125 40.4451 5.3619 30.0893 8.44884 20.4016C11.5359 10.714 21.8917 5.36334 31.5791 8.45028C41.2668 11.5373 46.6177 21.8932 43.5308 31.5808C42.7255 34.1078 41.3838 36.431 39.5973 38.3913C37.8109 40.3516 35.622 41.9028 33.1805 42.9387ZM38.2668 26C38.2668 25.5768 38.61 25.2332 39.0333 25.2332H40.5666C40.768 25.2363 40.96 25.3184 41.1013 25.4619C41.2426 25.6054 41.3218 25.7986 41.3218 26C41.3218 26.2014 41.2426 26.3946 41.1013 26.5381C40.96 26.6816 40.768 26.7637 40.5666 26.7668H39.0333C38.6101 26.7668 38.2669 26.4233 38.2669 26H38.2668ZM26.7668 11.4334V12.9667C26.7668 13.3899 26.4233 13.7331 26 13.7331C25.5767 13.7331 25.2332 13.3899 25.2332 12.9667V11.4334C25.2363 11.232 25.3184 11.04 25.4619 10.8987C25.6054 10.7574 25.7986 10.6782 26 10.6782C26.2014 10.6782 26.3946 10.7574 26.5381 10.8987C26.6816 11.04 26.7637 11.232 26.7668 11.4334ZM13.7332 26C13.7332 26.4232 13.39 26.7668 12.9667 26.7668H11.4334C11.232 26.7637 11.04 26.6816 10.8987 26.5381C10.7574 26.3946 10.6782 26.2014 10.6782 26C10.6782 25.7986 10.7574 25.6054 10.8987 25.4619C11.04 25.3184 11.232 25.2363 11.4334 25.2332H12.9667C13.3899 25.2332 13.7332 25.5767 13.7332 26Z" fill="#FF823C"/>
</svg>
