<svg width="52" height="52" viewBox="0 0 52 52" fill="none" xmlns="http://www.w3.org/2000/svg">
<path fill-rule="evenodd" clip-rule="evenodd" d="M8.34258 26.6867V47.3663H1.11133V26.6867H8.34258ZM34.921 10.8858C38.4003 10.8858 41.2206 13.7063 41.2206 17.1856C41.2206 20.6649 38.4002 23.4854 34.921 23.4854C31.4418 23.4854 28.6214 20.6649 28.6214 17.1856C28.6214 13.7063 31.4417 10.8858 34.921 10.8858ZM32.5946 3.24341V6.4605C31.3103 6.73773 30.0867 7.24468 28.9827 7.95692L26.7075 5.68192L23.4172 8.97214L25.6922 11.2471C24.9802 12.3513 24.4732 13.5748 24.1958 14.859H20.9789V19.512H24.1958C24.4732 20.7962 24.9801 22.0197 25.6922 23.1239L23.4174 25.3991L26.7075 28.6893L28.9827 26.4143C30.0868 27.1265 31.3104 27.6334 32.5946 27.9107V31.1276H37.2478V27.9107C38.5319 27.6333 39.7553 27.1263 40.8592 26.4141L43.1344 28.6891L46.4249 25.399L44.1497 23.1238C44.862 22.0198 45.369 20.7962 45.6461 19.5119H48.8632V14.8589H45.6461C45.3687 13.5747 44.8618 12.3511 44.1497 11.247L46.4249 8.97204L43.1344 5.68182L40.8592 7.95682C39.7553 7.24461 38.5319 6.73767 37.2478 6.4604V3.24341H32.5946ZM15.545 28.0393C16.2585 28.0399 16.9789 28.1873 17.7038 28.4815L29.9698 35.6277C31.4728 36.5035 31.9858 38.4657 31.1108 39.9674C30.2637 41.5075 28.2714 41.936 26.7706 41.1079L20.1892 37.2735C19.7536 37.0213 19.1956 37.1699 18.9431 37.6057C18.8219 37.815 18.7888 38.0638 18.8511 38.2975C18.9134 38.5312 19.0659 38.7306 19.2752 38.8518L25.8 42.6533C26.8416 43.3643 28.4431 43.5114 29.6429 43.195C30.7255 42.9096 31.7138 42.2641 32.4083 41.3112L47.3898 37.2973C48.8394 36.9091 50.4252 37.7879 50.7938 39.2623C51.1899 40.7414 50.309 42.2707 48.8294 42.667L26.8459 48.5571C25.2817 48.9763 23.8451 48.7134 22.43 47.9638L15.2847 44.1786C13.8844 43.4367 12.5448 43.1108 11.1926 43.1269C10.8507 43.1313 10.5093 43.157 10.1706 43.2039V29.8033L13.3309 28.4977C14.0725 28.1914 14.8116 28.0387 15.545 28.0393Z" fill="#FF823C"/>
</svg>
