<svg width="52" height="52" viewBox="0 0 52 52" fill="none" xmlns="http://www.w3.org/2000/svg">
<path d="M44.7601 52H48.571V38.6668L44.7601 37.5821V52ZM24.4764 45.8062C20.7426 45.3506 17.9572 43.1779 16.3702 39.4516C15.7278 37.9433 15.4035 36.443 15.2398 35.3052L10.2866 36.7149V52H24.4764V45.8062ZM41.7132 36.7149L36.76 35.3052C36.5963 36.443 36.272 37.9433 35.6296 39.4516C34.0426 43.1779 31.2571 45.3506 27.5234 45.8062V52H41.7133L41.7132 36.7149ZM7.23964 37.5821L3.42871 38.6668V52H7.23964V37.5821ZM32.7949 38.331C32.984 37.8958 33.1397 37.458 33.2687 37.0319C31.1415 38.3062 28.6549 39.0399 26 39.0399C23.345 39.0399 20.8585 38.3062 18.7312 37.032C18.8602 37.4581 19.0159 37.8959 19.205 38.3311C20.5269 41.3725 22.7495 42.8508 26 42.8508C29.2505 42.8508 31.4731 41.3724 32.7949 38.331ZM25.9999 35.993C32.1433 35.993 37.1413 30.995 37.1413 24.8516V20.758H14.8585V24.8516C14.8585 30.9949 19.8564 35.993 25.9999 35.993ZM14.8668 10.8533H20.4761V2.92459C17.2493 4.20966 15.0157 7.28457 14.8668 10.8533ZM31.5237 2.9247V10.8533H37.1329C36.984 7.28457 34.7503 4.20977 31.5237 2.9247ZM23.523 0H28.4769V10.8533H23.523V0ZM11.4295 13.9001H40.5702V17.7111H11.4295V13.9001Z" fill="#FF823C"/>
</svg>
