<svg width="52" height="52" viewBox="0 0 52 52" fill="none" xmlns="http://www.w3.org/2000/svg">
<g clip-path="url(#clip0_353_1122)">
<path d="M27.2953 22.7079L23.2944 23.4133L24.141 28.2145L28.142 27.509C29.4656 27.2756 30.3527 26.0088 30.1193 24.6852C29.8859 23.3616 28.6193 22.4752 27.2953 22.7079Z" fill="#FF823C"/>
<path d="M51.9876 33.9247L48.7374 7.92368C48.5846 6.70975 47.1967 6.09558 46.1973 6.79019C37.3721 12.9268 25.8037 15.1776 17.653 15.985C8.73243 16.8686 1.83911 16.2633 1.77005 16.2572C0.776928 16.1666 -0.124982 16.9972 0.0142655 18.1111L3.26003 44.0773C3.36159 44.8908 4.05326 45.5012 4.8729 45.5012C13.6056 45.5012 21.6336 44.8199 28.8389 43.4719C29.9287 43.2681 30.8253 42.3714 30.8836 40.9838C31.1232 35.3214 35.864 30.8263 41.5312 30.8761C45.0206 30.9067 48.1104 32.6371 50.0133 35.2779C50.6978 36.2277 52.149 35.2299 51.9876 33.9247ZM28.7062 30.7098L24.7052 31.4153L24.9873 33.0157L28.1881 32.4513C29.0722 32.2953 29.9149 32.8857 30.0706 33.7695C30.2264 34.6533 29.6363 35.4962 28.7524 35.652L25.5516 36.2164L25.8339 37.8169C25.9898 38.7008 25.3996 39.5437 24.5157 39.6995C23.6339 39.8553 22.7892 39.2669 22.6331 38.3812L19.8112 22.3775C19.6553 21.4937 20.2455 20.6508 21.1294 20.495L26.7307 19.5072C29.8184 18.9628 32.7751 21.0323 33.3197 24.1208C33.8643 27.2094 31.7947 30.1652 28.7062 30.7098Z" fill="#FF823C"/>
<path d="M41.4367 48.7514C37.4044 48.7514 34.1239 45.4709 34.1239 41.4386C34.1239 37.4063 37.4044 34.1258 41.4367 34.1258C45.469 34.1258 48.7495 37.4063 48.7495 41.4386C48.7495 45.4709 45.469 48.7514 41.4367 48.7514ZM20.9158 5.1177C20.3852 5.43865 20.4038 6.21574 20.9451 6.5183C22.771 7.53995 24.3257 8.98396 25.4792 10.7296C25.7584 11.1522 26.2653 11.3634 26.76 11.2547C29.9041 10.563 33.2129 9.6304 36.5084 8.37392C37.0549 8.16551 37.2096 7.4581 36.7953 7.04523C32.5168 2.78106 25.961 2.06593 20.9158 5.1177ZM6.89424 11.9382C6.48645 12.4681 6.87189 13.2367 7.5405 13.2391C11.954 13.2547 16.5448 12.952 20.9935 12.3033C21.6622 12.2058 21.9259 11.3871 21.4431 10.9141C17.2489 6.80401 10.4545 7.31174 6.89424 11.9382Z" fill="#FF823C"/>
</g>
<defs>
<clipPath id="clip0_353_1122">
<rect width="52" height="52" fill="white"/>
</clipPath>
</defs>
</svg>
