<svg width="52" height="52" viewBox="0 0 52 52" fill="none" xmlns="http://www.w3.org/2000/svg">
<path d="M37.9168 10.8334H44.4385C44.6619 10.8336 44.8798 10.7646 45.0625 10.6361C45.2452 10.5076 45.3837 10.3257 45.459 10.1154C45.5344 9.90508 45.5428 9.67663 45.4833 9.46133C45.4237 9.24603 45.2991 9.0544 45.1264 8.91269L38.7391 1.46152C38.5953 1.29314 38.4033 1.173 38.189 1.11739C37.9746 1.06178 37.7484 1.07337 37.5409 1.1506C37.1162 1.30877 36.8335 1.71394 36.8335 2.16677V9.7501C36.8335 10.0374 36.9476 10.313 37.1508 10.5161C37.354 10.7193 37.6295 10.8334 37.9168 10.8334ZM32.5002 40.0834C37.2787 40.0834 41.1668 36.1954 41.1668 31.4168C41.1668 26.6382 37.2787 22.7501 32.5002 22.7501C27.7216 22.7501 23.8335 26.6382 23.8335 31.4168C23.8335 36.1954 27.7216 40.0834 32.5002 40.0834ZM28.2806 29.7344C28.198 29.5692 28.1591 29.3856 28.1674 29.2011C28.1758 29.0166 28.2312 28.8373 28.3283 28.6802C28.4255 28.5232 28.5612 28.3935 28.7225 28.3037C28.8838 28.2138 29.0655 28.1667 29.2502 28.1668H30.9683L31.7342 27.4009C31.8348 27.3002 31.9542 27.2203 32.0856 27.1658C32.217 27.1113 32.3579 27.0832 32.5002 27.0832C32.6424 27.0832 32.7833 27.1113 32.9147 27.1658C33.0462 27.2203 33.1656 27.3002 33.2661 27.4009L34.032 28.1668H35.7502C35.9348 28.1667 36.1165 28.2138 36.2778 28.3037C36.4392 28.3935 36.5749 28.5232 36.672 28.6802C36.7692 28.8373 36.8245 29.0166 36.8329 29.2011C36.8412 29.3856 36.8023 29.5692 36.7197 29.7344L35.878 31.4168L36.7187 33.0992C36.8012 33.2643 36.8401 33.4478 36.8318 33.6322C36.8235 33.8166 36.7682 33.9958 36.6712 34.1528C36.5742 34.3099 36.4386 34.4395 36.2775 34.5295C36.1163 34.6194 35.9348 34.6667 35.7502 34.6668H34.032L33.2661 35.4327C33.1657 35.5336 33.0464 35.6138 32.9149 35.6684C32.7835 35.7231 32.6425 35.7512 32.5002 35.7512C32.3578 35.7512 32.2169 35.7231 32.0854 35.6684C31.954 35.6138 31.8346 35.5336 31.7342 35.4327L30.9683 34.6668H29.2502C29.0655 34.6669 28.8838 34.6197 28.7225 34.5299C28.5612 34.44 28.4255 34.3104 28.3283 34.1533C28.2312 33.9962 28.1758 33.8169 28.1674 33.6325C28.1591 33.448 28.198 33.2644 28.2806 33.0992L29.1223 31.4168L28.2806 29.7344Z" fill="#FF823C"/>
<path d="M37.9167 11.9168C36.725 11.9168 35.75 10.9418 35.75 9.75016V2.16683C35.75 1.77683 35.8583 1.4085 36.0533 1.0835H7.58333C6.9875 1.0835 6.5 1.571 6.5 2.16683V44.4168C6.5 45.0127 6.9875 45.5002 7.58333 45.5002H24.9167V37.5268C23.5625 35.8585 22.75 33.7352 22.75 31.4168C22.75 26.0435 27.1267 21.6668 32.5 21.6668C37.8733 21.6668 42.25 26.0435 42.25 31.4168C42.25 33.7352 41.4375 35.8585 40.0833 37.5268V45.5002H44.4167C45.0125 45.5002 45.5 45.0127 45.5 44.4168V11.6352C45.1858 11.8193 44.8283 11.9168 44.4383 11.9168H37.9167ZM11.9167 7.5835H18.4167C18.704 7.5835 18.9795 7.69763 19.1827 7.9008C19.3859 8.10396 19.5 8.37951 19.5 8.66683C19.5 8.95415 19.3859 9.2297 19.1827 9.43286C18.9795 9.63603 18.704 9.75016 18.4167 9.75016H11.9167C11.6293 9.75016 11.3538 9.63603 11.1506 9.43286C10.9475 9.2297 10.8333 8.95415 10.8333 8.66683C10.8333 8.37951 10.9475 8.10396 11.1506 7.9008C11.3538 7.69763 11.6293 7.5835 11.9167 7.5835ZM20.5833 36.8335H11.9167C11.6293 36.8335 11.3538 36.7194 11.1506 36.5162C10.9475 36.313 10.8333 36.0375 10.8333 35.7502C10.8333 35.4628 10.9475 35.1873 11.1506 34.9841C11.3538 34.781 11.6293 34.6668 11.9167 34.6668H20.5833C20.8707 34.6668 21.1462 34.781 21.3494 34.9841C21.5525 35.1873 21.6667 35.4628 21.6667 35.7502C21.6667 36.0375 21.5525 36.313 21.3494 36.5162C21.1462 36.7194 20.8707 36.8335 20.5833 36.8335ZM20.5833 31.4168H11.9167C11.6293 31.4168 11.3538 31.3027 11.1506 31.0995C10.9475 30.8964 10.8333 30.6208 10.8333 30.3335C10.8333 30.0462 10.9475 29.7706 11.1506 29.5675C11.3538 29.3643 11.6293 29.2502 11.9167 29.2502H20.5833C20.8707 29.2502 21.1462 29.3643 21.3494 29.5675C21.5525 29.7706 21.6667 30.0462 21.6667 30.3335C21.6667 30.6208 21.5525 30.8964 21.3494 31.0995C21.1462 31.3027 20.8707 31.4168 20.5833 31.4168ZM20.5833 26.0002H11.9167C11.6293 26.0002 11.3538 25.886 11.1506 25.6829C10.9475 25.4797 10.8333 25.2041 10.8333 24.9168C10.8333 24.6295 10.9475 24.354 11.1506 24.1508C11.3538 23.9476 11.6293 23.8335 11.9167 23.8335H20.5833C20.8707 23.8335 21.1462 23.9476 21.3494 24.1508C21.5525 24.354 21.6667 24.6295 21.6667 24.9168C21.6667 25.2041 21.5525 25.4797 21.3494 25.6829C21.1462 25.886 20.8707 26.0002 20.5833 26.0002ZM34.6667 20.5835H11.9167C11.6293 20.5835 11.3538 20.4694 11.1506 20.2662C10.9475 20.063 10.8333 19.7875 10.8333 19.5002C10.8333 19.2128 10.9475 18.9373 11.1506 18.7341C11.3538 18.531 11.6293 18.4168 11.9167 18.4168H34.6667C34.954 18.4168 35.2295 18.531 35.4327 18.7341C35.6359 18.9373 35.75 19.2128 35.75 19.5002C35.75 19.7875 35.6359 20.063 35.4327 20.2662C35.2295 20.4694 34.954 20.5835 34.6667 20.5835ZM34.6667 15.1668H11.9167C11.6293 15.1668 11.3538 15.0527 11.1506 14.8495C10.9475 14.6464 10.8333 14.3708 10.8333 14.0835C10.8333 13.7962 10.9475 13.5206 11.1506 13.3175C11.3538 13.1143 11.6293 13.0002 11.9167 13.0002H34.6667C34.954 13.0002 35.2295 13.1143 35.4327 13.3175C35.6359 13.5206 35.75 13.7962 35.75 14.0835C35.75 14.3708 35.6359 14.6464 35.4327 14.8495C35.2295 15.0527 34.954 15.1668 34.6667 15.1668Z" fill="#FF823C"/>
<path d="M26 38.675V49.8334C26 50.1909 26.1842 50.5375 26.4875 50.7326C26.78 50.9384 27.1592 50.9709 27.495 50.83L32.5 48.75L37.505 50.83C37.635 50.8842 37.7758 50.9167 37.9167 50.9167C38.1225 50.9167 38.3392 50.8517 38.5125 50.7326C38.8158 50.5375 39 50.1909 39 49.8334V38.675C37.2153 40.2797 34.9 41.1675 32.5 41.1675C30.1 41.1675 27.7847 40.2797 26 38.675Z" fill="#FF823C"/>
</svg>
