<svg width="139" height="108" viewBox="0 0 139 108" fill="none" xmlns="http://www.w3.org/2000/svg">
<g clip-path="url(#clip0_353_1139)">
<path d="M26.2063 107.985C40.1668 107.985 51.484 96.6678 51.484 82.7073C51.484 68.7469 40.1668 57.4297 26.2063 57.4297C12.2459 57.4297 0.928711 68.7469 0.928711 82.7073C0.928711 96.6678 12.2459 107.985 26.2063 107.985Z" fill="#DBDBDB"/>
<path d="M50.374 1.00277C50.2371 0.766415 50.0535 0.560434 49.8344 0.3974C49.6152 0.234365 49.3652 0.117698 49.0995 0.0545184C48.8338 -0.00866072 48.558 -0.017026 48.2889 0.0299333C48.0198 0.0768926 47.7632 0.178191 47.5346 0.327646C43.0728 3.20839 39.6408 7.43131 37.7332 12.3878C37.6356 12.645 37.5434 12.901 37.4563 13.1559C36.3747 16.4154 36.002 19.8684 36.3632 23.2837C36.7245 26.6989 37.8114 29.9976 39.5511 32.9587C53.6732 57.4097 67.7954 81.8607 81.9175 106.312C82.0501 106.541 82.2265 106.742 82.4368 106.902C82.6471 107.063 82.8871 107.181 83.1429 107.248C83.3988 107.316 83.6655 107.333 83.9277 107.297C84.19 107.261 84.4426 107.174 84.6712 107.041C87.8155 105.24 90.486 102.717 92.4615 99.6794C95.5151 94.9214 96.1477 89.8352 95.8723 85.5726C95.5581 81.1421 94.2267 76.8436 91.9817 73.0112C78.1124 49.0084 64.2432 25.0056 50.374 1.00277Z" fill="#EAEAEA"/>
<path d="M92.5151 1.00277C92.3782 0.766415 92.1946 0.560434 91.9755 0.3974C91.7564 0.234365 91.5063 0.117698 91.2406 0.0545184C90.9749 -0.00866072 90.6991 -0.017026 90.43 0.0299333C90.1609 0.0768926 89.9043 0.178191 89.6757 0.327646C85.2139 3.20839 81.7819 7.43131 79.8743 12.3878C79.7768 12.645 79.6845 12.901 79.5975 13.1559C78.5158 16.4154 78.1431 19.8684 78.5043 23.2837C78.8656 26.6989 79.9525 29.9976 81.6922 32.9587C95.8143 57.4097 109.937 81.8607 124.059 106.312C124.191 106.541 124.368 106.742 124.578 106.902C124.788 107.063 125.028 107.181 125.284 107.248C125.54 107.316 125.807 107.333 126.069 107.297C126.331 107.261 126.584 107.174 126.812 107.041C129.957 105.24 132.627 102.717 134.603 99.6794C137.656 94.9214 138.289 89.8352 138.013 85.5726C137.699 81.1421 136.368 76.8436 134.123 73.0112C120.254 49.0084 106.384 25.0056 92.5151 1.00277Z" fill="#EAEAEA"/>
</g>
<defs>
<clipPath id="clip0_353_1139">
<rect width="137.143" height="108" fill="white" transform="translate(0.928711)"/>
</clipPath>
</defs>
</svg>
