<svg width="24" height="24" viewBox="0 0 24 24" fill="none" xmlns="http://www.w3.org/2000/svg">
<path d="M11.2155 11.9174C11.6332 12.1959 12.3663 12.1959 12.7842 11.9173L12.7844 11.9172L19.9052 7.16995C19.6717 6.49444 19.0297 6.00781 18.2758 6.00781H5.72372C4.96981 6.00781 4.32783 6.49444 4.09424 7.16995L11.2152 11.9172L11.2155 11.9174Z" fill="#FF823C"/>
<path d="M13.3046 12.697L13.3044 12.6972C12.9387 12.9409 12.4693 13.0628 12 13.0628C11.5306 13.0628 11.0614 12.941 10.6956 12.6971L10.6955 12.697L4 8.2334V16.267C4 17.2175 4.77335 17.9908 5.72395 17.9908H18.2761C19.2267 17.9908 20 17.2175 20 16.267V8.2334L13.3046 12.697Z" fill="#FF823C"/>
</svg>
