<svg width="22" height="24" viewBox="0 0 22 24" fill="none" xmlns="http://www.w3.org/2000/svg">
<path fill-rule="evenodd" clip-rule="evenodd" d="M10.5487 4C8.81302 4.00218 7.14901 4.69245 5.92144 5.9195C4.69387 7.14656 4.0029 8.81028 4 10.546C4 13.0508 5.58299 15.3333 7.09191 17.0288C8.60082 18.7243 10.1097 19.8546 10.1097 19.8546C10.2356 19.949 10.3886 20 10.546 20C10.7033 20 10.8563 19.949 10.9822 19.8546C10.9822 19.8546 12.4911 18.7243 14 17.0288C15.5089 15.3333 17.0919 13.0508 17.0919 10.546C17.0905 8.8103 16.4003 7.14616 15.173 5.91887C13.9457 4.69158 12.2843 4.00145 10.5487 4ZM10.546 7.63786C11.3172 7.63786 12.0569 7.94425 12.6023 8.48962C13.1477 9.03499 13.454 9.77468 13.454 10.546C13.454 11.3172 13.1477 12.0569 12.6023 12.6023C12.0569 13.1477 11.3172 13.454 10.546 13.454C9.77468 13.454 9.03499 13.1477 8.48962 12.6023C7.94425 12.0569 7.63786 11.3172 7.63786 10.546C7.63786 9.77468 7.94425 9.03499 8.48962 8.48962C9.03499 7.94425 9.77468 7.63786 10.546 7.63786Z" fill="#FF823C"/>
</svg>
