<svg width="83" height="12" viewBox="0 0 83 12" fill="none" xmlns="http://www.w3.org/2000/svg">
<path d="M1.928 10.188H6.856V11.5H0.536V0.299999H1.928V10.188ZM17.3476 10.044C16.2383 11.1427 14.8356 11.692 13.1396 11.692C11.4543 11.692 10.057 11.1427 8.94763 10.044C7.83829 8.94533 7.28363 7.56933 7.28363 5.916C7.28363 4.252 7.83829 2.87067 8.94763 1.772C10.057 0.662666 11.4543 0.108 13.1396 0.108C14.8356 0.108 16.2383 0.657333 17.3476 1.756C18.457 2.85467 19.0116 4.236 19.0116 5.9C19.0116 7.564 18.457 8.94533 17.3476 10.044ZM9.97163 9.052C10.8143 9.89467 11.8703 10.316 13.1396 10.316C14.4196 10.316 15.4756 9.9 16.3076 9.068C17.1503 8.22533 17.5716 7.16933 17.5716 5.9C17.5716 4.63067 17.1503 3.58 16.3076 2.748C15.4756 1.90533 14.4196 1.484 13.1396 1.484C11.8703 1.484 10.8143 1.90533 9.97163 2.748C9.13963 3.59067 8.72363 4.64133 8.72363 5.9C8.72363 7.15867 9.13963 8.20933 9.97163 9.052ZM25.8293 5.948H31.8293C31.7973 7.63333 31.2586 9.01467 30.2133 10.092C29.1786 11.1587 27.8506 11.692 26.2293 11.692C24.5866 11.692 23.2266 11.148 22.1493 10.06C21.0826 8.96133 20.5493 7.57467 20.5493 5.9C20.5493 4.236 21.0826 2.86 22.1493 1.772C23.2266 0.673333 24.5759 0.124 26.1973 0.124C27.0933 0.124 27.9253 0.3 28.6933 0.651999C29.4719 0.993333 30.1173 1.47333 30.6293 2.092C31.1519 2.71067 31.4933 3.41467 31.6533 4.204H30.2133C30.0533 3.67067 29.7813 3.20133 29.3973 2.796C29.0133 2.38 28.5439 2.06 27.9893 1.836C27.4453 1.612 26.8586 1.5 26.2293 1.5C25.4186 1.5 24.6879 1.68667 24.0373 2.06C23.3973 2.43333 22.8959 2.956 22.5333 3.628C22.1706 4.3 21.9893 5.05733 21.9893 5.9C21.9893 7.20133 22.3786 8.26267 23.1573 9.084C23.9466 9.90533 24.9706 10.316 26.2293 10.316C26.9119 10.316 27.5359 10.188 28.1013 9.932C28.6773 9.676 29.1519 9.31867 29.5253 8.86C29.9093 8.40133 30.1706 7.87333 30.3093 7.276H25.8293V5.948ZM43.3789 10.044C42.2695 11.1427 40.8669 11.692 39.1709 11.692C37.4855 11.692 36.0882 11.1427 34.9789 10.044C33.8695 8.94533 33.3149 7.56933 33.3149 5.916C33.3149 4.252 33.8695 2.87067 34.9789 1.772C36.0882 0.662666 37.4855 0.108 39.1709 0.108C40.8669 0.108 42.2695 0.657333 43.3789 1.756C44.4882 2.85467 45.0429 4.236 45.0429 5.9C45.0429 7.564 44.4882 8.94533 43.3789 10.044ZM36.0029 9.052C36.8455 9.89467 37.9015 10.316 39.1709 10.316C40.4509 10.316 41.5069 9.9 42.3389 9.068C43.1815 8.22533 43.6029 7.16933 43.6029 5.9C43.6029 4.63067 43.1815 3.58 42.3389 2.748C41.5069 1.90533 40.4509 1.484 39.1709 1.484C37.9015 1.484 36.8455 1.90533 36.0029 2.748C35.1709 3.59067 34.7549 4.64133 34.7549 5.9C34.7549 7.15867 35.1709 8.20933 36.0029 9.052ZM53.8413 0.299999V1.612H50.4333V11.5H49.0253V1.612H45.6173V0.299999H53.8413ZM64.2839 0.299999L60.1559 7.036V11.5H58.7159V7.036L54.6039 0.299999H56.1399L59.4359 5.708L62.7479 0.299999H64.2839ZM70.2551 0.299999C71.3111 0.299999 72.1911 0.641333 72.8951 1.324C73.6098 2.00667 73.9671 2.86 73.9671 3.884C73.9671 4.908 73.6098 5.76133 72.8951 6.444C72.1911 7.12667 71.3111 7.468 70.2551 7.468H67.6311V11.5H66.2391V0.299999H70.2551ZM70.1751 6.108C70.8578 6.108 71.4178 5.9 71.8551 5.484C72.3031 5.05733 72.5271 4.524 72.5271 3.884C72.5271 3.244 72.3031 2.716 71.8551 2.3C71.4178 1.87333 70.8578 1.66 70.1751 1.66H67.6311V6.108H70.1751ZM77.3968 10.156H82.5168V11.5H76.0048V0.299999H82.3408V1.628H77.3968V5.1H81.9248V6.396H77.3968V10.156Z" fill="#4A494A"/>
</svg>
