<svg width="48" height="48" viewBox="0 0 48 48" fill="none" xmlns="http://www.w3.org/2000/svg">
<rect width="48" height="48" rx="5" fill="#ECECEC"/>
<path d="M13.9448 25.2701V13H27.3363M27.3363 13L34.547 20.1576M27.3363 13V20.1576H34.547M34.547 20.1576V25.2701" stroke="#4A494A" stroke-width="1.5"/>
<path d="M34.9998 27.6359H31.3781V30.0989H34.674V31.405H31.3781V34.9999H29.937V26.2925H34.9998V27.6359Z" fill="#4A494A"/>
<path d="M23.8053 26.2925C25.0918 26.2925 26.1529 26.703 26.9883 27.524C27.8321 28.3449 28.254 29.3857 28.254 30.6462C28.254 31.9067 27.8321 32.9474 26.9883 33.7684C26.1529 34.5894 25.0918 34.9999 23.8053 34.9999H20.71V26.2925H23.8053ZM23.7677 33.6689C24.6449 33.6689 25.3634 33.3869 25.9231 32.823C26.4912 32.2508 26.7753 31.5252 26.7753 30.6462C26.7753 30.2067 26.7001 29.8003 26.5497 29.4271C26.4077 29.054 26.203 28.7347 25.9356 28.4693C25.6767 28.204 25.3592 27.9966 24.9832 27.8474C24.6073 27.6981 24.2021 27.6235 23.7677 27.6235H22.1511V33.6689H23.7677Z" fill="#4A494A"/>
<path d="M16.2457 26.2925C16.8054 26.2925 17.3109 26.4169 17.762 26.6657C18.2215 26.9144 18.5807 27.2586 18.8397 27.6981C19.0987 28.1376 19.2282 28.6269 19.2282 29.1659C19.2282 29.9869 18.9442 30.6711 18.3761 31.2184C17.808 31.7657 17.0978 32.0394 16.2457 32.0394H14.4411V34.9999H13V26.2925H16.2457ZM16.1705 30.6835C16.4044 30.6835 16.6175 30.6462 16.8096 30.5715C17.0101 30.4969 17.1814 30.3932 17.3234 30.2606C17.4654 30.1279 17.574 29.9662 17.6492 29.7754C17.7328 29.5847 17.7745 29.3815 17.7745 29.1659C17.7745 28.8757 17.7035 28.6186 17.5615 28.3947C17.4278 28.1625 17.2399 27.9801 16.9976 27.8474C16.7553 27.7147 16.4796 27.6483 16.1705 27.6483H14.4411V30.6835H16.1705Z" fill="#4A494A"/>
</svg>
