<svg width="24" height="24" viewBox="0 0 24 24" fill="none" xmlns="http://www.w3.org/2000/svg">
<path fill-rule="evenodd" clip-rule="evenodd" d="M19.7071 18.0729C19.6009 18.1788 19.4727 18.3142 19.3369 18.4575C18.9979 18.8172 18.5744 19.2645 18.309 19.4458C16.9125 20.4001 15.0442 19.9435 13.7227 19.3929C11.9794 18.6665 10.0814 17.3276 8.37716 15.6232C6.67136 13.9186 5.33261 12.02 4.60624 10.2777C4.05626 8.9559 3.59869 7.08723 4.55311 5.69042C4.73436 5.42481 5.18262 5.00199 5.54191 4.66234C5.68566 4.52691 5.82002 4.39895 5.92627 4.29305C6.11489 4.10536 6.37016 4 6.63625 4C6.90234 4 7.15761 4.10536 7.34624 4.29305L9.91574 6.86181C10.1033 7.05042 10.2086 7.30562 10.2086 7.57163C10.2086 7.83765 10.1033 8.09284 9.91574 8.28146L9.21578 8.98002C8.98201 9.21208 8.82942 9.51341 8.78073 9.83918C8.73203 10.1649 8.78982 10.4977 8.94551 10.788C9.90827 12.6051 11.3946 14.0912 13.2119 15.0536C13.5021 15.2093 13.8348 15.267 14.1605 15.2182C14.4861 15.1694 14.7874 15.0168 15.0192 14.7829L15.7175 14.0844C15.9061 13.8967 16.1614 13.7913 16.4275 13.7913C16.6936 13.7913 16.9488 13.8967 17.1374 14.0844L19.7071 16.6535C19.8947 16.8421 20 17.0972 20 17.3632C20 17.6292 19.8947 17.8843 19.7071 18.0729Z" fill="#FF823C"/>
</svg>
